<?xml version="1.0" standalone="no"?>
<!DOCTYPE svg PUBLIC "-//W3C//DTD SVG 20010904//EN"
 "http://www.w3.org/TR/2001/REC-SVG-20010904/DTD/svg10.dtd">
<svg version="1.0" xmlns="http://www.w3.org/2000/svg"
 width="512.000000pt" height="512.000000pt" viewBox="0 0 512.000000 512.000000"
 preserveAspectRatio="xMidYMid meet">

<g transform="translate(0.000000,512.000000) scale(0.100000,-0.100000)"
fill="#000000" stroke="none">
<path d="M73 4274 c-18 -9 -42 -31 -53 -49 -20 -32 -20 -48 -20 -1665 0 -1822
-6 -1666 70 -1709 l38 -21 2458 0 c2421 0 2459 0 2491 20 68 41 63 -91 63
1706 l0 1626 -22 39 c-42 75 191 69 -2540 69 -2227 0 -2456 -2 -2485 -16z
m4905 -1711 l-3 -1588 -2412 -3 -2413 -2 0 1590 0 1590 2415 0 2415 0 -2
-1587z"/>
<path d="M1407 3858 c-158 -12 -293 -65 -382 -149 -64 -61 -104 -132 -112
-201 -3 -29 -16 -71 -27 -93 -16 -30 -22 -63 -24 -131 -4 -107 17 -206 72
-331 19 -43 42 -109 50 -147 25 -104 79 -200 163 -285 40 -40 73 -76 73 -79 0
-3 -9 -41 -21 -84 l-21 -78 -117 0 c-212 0 -342 -51 -477 -185 -63 -63 -90
-99 -123 -165 -60 -122 -71 -188 -71 -428 0 -202 0 -203 25 -227 l24 -25 1100
0 1100 0 26 23 27 23 -1 219 c-2 255 -11 309 -73 428 -80 154 -241 280 -408
322 -36 8 -119 19 -184 23 l-120 7 -18 60 c-23 78 -23 78 12 98 48 29 126 110
170 178 54 84 81 172 90 299 5 75 15 127 34 180 52 143 45 303 -18 427 -110
218 -422 348 -769 321z m280 -157 c265 -55 414 -219 388 -427 l-7 -55 -58 88
c-65 98 -154 189 -219 222 -92 47 -158 8 -134 -81 6 -23 11 -44 9 -45 -1 -1
-29 11 -61 26 -125 60 -240 78 -277 44 -22 -20 -24 -80 -3 -107 23 -30 19 -34
-27 -25 -24 4 -73 8 -110 9 -56 0 -72 -4 -89 -21 -19 -19 -21 -28 -15 -88 7
-64 5 -69 -23 -105 l-30 -37 -11 38 c-6 21 -14 70 -17 109 -5 63 -3 78 21 127
15 33 26 73 26 98 0 183 313 297 637 230z m-57 -453 c30 -17 84 -51 119 -74
35 -24 72 -44 83 -44 24 0 68 43 68 67 0 23 29 -18 76 -109 30 -59 34 -77 34
-142 0 -179 -96 -332 -255 -406 -93 -43 -169 -55 -259 -41 -200 32 -350 184
-379 385 l-11 75 32 38 c49 58 85 122 92 162 5 33 8 36 35 33 17 -2 70 -17
118 -33 99 -33 139 -36 161 -14 26 26 28 53 7 100 l-20 46 22 -6 c12 -4 47
-21 77 -37z m-170 -889 c47 -10 135 -8 249 4 21 2 26 -5 41 -58 30 -105 32
-137 10 -172 -32 -53 -100 -86 -190 -91 -115 -7 -195 27 -241 102 -24 40 -24
61 3 158 21 77 23 79 47 74 14 -3 51 -11 81 -17z m515 -589 l0 -365 -432 -3
-433 -2 0 365 0 365 30 0 c25 0 33 -6 50 -43 11 -24 39 -62 63 -84 183 -179
526 -136 641 80 26 49 35 57 56 55 l25 -3 0 -365z m-1017 -11 l-3 -354 -210 0
-210 0 0 150 c1 177 17 255 75 343 44 69 121 142 181 173 59 30 152 59 162 50
4 -4 6 -167 5 -362z m1300 325 c129 -59 232 -181 268 -318 9 -33 14 -107 14
-208 l0 -158 -205 0 -205 0 0 365 0 365 28 -6 c15 -3 60 -21 100 -40z"/>
<path d="M2965 3785 c-14 -13 -25 -36 -25 -50 0 -14 11 -37 25 -50 l24 -25
439 0 439 0 21 23 c31 33 29 80 -4 106 -26 21 -37 21 -461 21 l-434 0 -24 -25z"/>
<path d="M2983 3220 c-46 -19 -57 -83 -20 -118 l23 -22 853 0 852 0 24 25 c39
38 30 86 -22 113 -26 14 -1675 16 -1710 2z"/>
<path d="M2983 2630 c-46 -19 -57 -83 -20 -118 l23 -22 853 0 852 0 24 25 c14
13 25 31 25 39 0 28 -22 64 -47 75 -29 14 -1676 15 -1710 1z"/>
<path d="M2965 2025 c-30 -30 -32 -64 -4 -99 l20 -26 855 0 855 0 24 25 c14
13 25 36 25 50 0 14 -11 37 -25 50 l-24 25 -851 0 -851 0 -24 -25z"/>
<path d="M2965 1435 c-14 -13 -25 -36 -25 -50 0 -14 11 -37 25 -50 l24 -25
841 0 c719 0 845 2 869 15 48 24 55 72 16 110 l-24 25 -851 0 -851 0 -24 -25z"/>
</g>
</svg>
