<?xml version="1.0" standalone="no"?>
<!DOCTYPE svg PUBLIC "-//W3C//DTD SVG 20010904//EN"
 "http://www.w3.org/TR/2001/REC-SVG-20010904/DTD/svg10.dtd">
<svg version="1.0" xmlns="http://www.w3.org/2000/svg"
 width="512.000000pt" height="512.000000pt" viewBox="0 0 512.000000 512.000000"
 preserveAspectRatio="xMidYMid meet">

<g transform="translate(0.000000,512.000000) scale(0.100000,-0.100000)"
fill="#000000" stroke="none">
<path d="M1670 5083 c-8 -3 -26 -15 -38 -27 -52 -46 -52 -46 -52 -480 l0 -405
-37 -6 c-68 -11 -161 -35 -215 -55 -155 -58 -319 -193 -418 -342 -108 -164
-150 -327 -150 -580 0 -145 -1 -150 -26 -183 -83 -109 -83 -269 -1 -377 38
-50 122 -104 177 -113 37 -6 38 -7 55 -76 33 -139 106 -261 210 -357 l65 -59
0 -75 0 -74 -417 -164 c-230 -90 -440 -174 -468 -188 -122 -61 -232 -173 -292
-297 -59 -125 -63 -162 -63 -645 0 -432 0 -435 23 -474 46 -80 4 -76 787 -76
687 0 697 0 718 20 32 30 30 82 -4 109 -26 20 -38 21 -365 21 l-339 0 0 209
c0 184 -2 211 -17 229 -29 34 -66 37 -99 9 l-29 -25 -3 -211 -3 -211 -260 0
-259 0 0 410 c0 441 3 478 51 574 83 164 123 189 624 386 401 157 409 159 423
139 7 -11 95 -92 195 -180 195 -172 209 -179 263 -137 56 43 349 306 359 322
9 15 59 -3 410 -140 220 -87 423 -172 450 -189 112 -71 202 -201 225 -324 15
-81 13 -834 -2 -849 -9 -9 -80 -12 -259 -12 l-248 0 -3 210 c-3 200 -4 210
-25 231 -27 27 -75 29 -103 4 -19 -17 -20 -30 -20 -232 l0 -213 -339 0 c-322
0 -340 -1 -363 -20 -14 -11 -28 -28 -30 -38 -8 -30 18 -81 44 -87 13 -3 528
-4 1145 -3 l1123 3 416 415 c229 228 465 468 525 532 l109 117 0 774 c0 768 0
775 -21 801 -28 36 -80 36 -108 0 -21 -26 -21 -33 -21 -750 l0 -723 -459 -3
c-446 -3 -460 -4 -487 -24 -15 -11 -37 -33 -48 -48 -20 -27 -21 -41 -24 -487
l-3 -459 -319 0 -320 0 0 413 c0 435 -4 478 -49 598 -44 116 -152 241 -268
309 -33 19 -254 111 -491 204 l-432 169 0 77 0 77 51 43 c114 96 195 240 233
413 4 15 13 27 21 27 8 0 39 9 69 20 68 26 130 85 163 156 l24 54 345 0 c288
0 351 3 381 15 50 21 72 42 94 90 17 37 19 74 19 485 0 411 -2 448 -19 485
-22 48 -44 69 -94 90 -31 13 -107 15 -515 15 -320 0 -489 -4 -510 -11 -30 -10
-35 -8 -89 39 -140 121 -282 186 -475 217 l-38 6 0 384 0 385 1620 0 1620 0 0
-991 c0 -615 4 -997 10 -1008 5 -10 22 -24 39 -30 32 -14 64 -3 88 28 10 12
12 248 13 1029 0 1099 3 1038 -55 1092 l-27 25 -1676 2 c-922 1 -1684 -1
-1692 -4z m143 -1079 c159 -36 317 -134 418 -261 111 -140 156 -271 166 -485
6 -137 6 -138 -15 -138 -18 0 -22 6 -22 33 0 38 -36 83 -197 250 -119 122
-129 124 -263 43 -230 -139 -510 -215 -749 -203 -156 8 -188 -5 -201 -83 -3
-23 -11 -36 -24 -38 -18 -4 -19 3 -13 139 8 205 41 312 142 454 111 156 269
254 480 299 51 10 212 5 278 -10z m1495 -246 c9 -9 12 -119 12 -434 0 -375 -2
-423 -16 -428 -9 -3 -163 -6 -343 -6 l-328 0 -18 40 c-10 22 -29 55 -42 72
-21 29 -23 42 -23 157 0 265 -36 424 -130 575 l-22 36 449 0 c336 0 452 -3
461 -12z m-1101 -953 c-3 -306 -4 -334 -24 -386 -64 -171 -215 -309 -389 -354
-74 -19 -212 -19 -284 0 -188 50 -343 203 -396 391 -13 46 -18 120 -21 347
l-5 287 93 0 c259 1 565 85 774 214 l60 36 97 -102 98 -103 -3 -330z m-1269
-71 l-3 -75 -34 23 c-50 34 -73 71 -78 125 -6 56 20 102 77 141 l35 23 3 -81
c2 -44 2 -115 0 -156z m1472 214 c55 -38 74 -72 74 -131 0 -65 -26 -112 -76
-138 -21 -10 -40 -19 -43 -19 -3 0 -5 70 -5 155 0 85 4 155 9 155 4 0 23 -10
41 -22z m-910 -1033 c113 -25 262 -17 398 21 22 6 22 5 22 -87 l-1 -94 -129
-113 c-72 -63 -134 -112 -139 -110 -5 1 -66 53 -135 113 l-126 110 0 94 c0 92
0 93 23 87 12 -4 51 -13 87 -21z m2985 -1245 l-380 -380 -3 367 c-1 203 0 374
3 380 3 10 89 13 382 13 l378 0 -380 -380z"/>
<path d="M3783 3910 c-46 -19 -57 -83 -20 -118 23 -22 27 -22 396 -22 l372 0
24 25 c30 29 32 64 6 96 l-19 24 -369 2 c-202 1 -378 -2 -390 -7z"/>
<path d="M3760 3378 c-37 -40 -21 -97 34 -118 37 -14 693 -14 733 0 28 10 53
45 53 74 0 7 -9 25 -21 40 l-20 26 -379 0 c-377 0 -379 0 -400 -22z"/>
<path d="M3761 2864 c-26 -33 -27 -65 -2 -95 l19 -24 382 0 382 0 19 24 c26
32 24 67 -6 96 l-24 25 -375 0 -375 0 -20 -26z"/>
<path d="M2643 2370 c-47 -19 -56 -78 -18 -115 l24 -25 941 0 941 0 24 25 c30
29 32 64 6 96 l-19 24 -939 2 c-529 1 -948 -2 -960 -7z"/>
<path d="M3084 1856 c-48 -21 -60 -80 -24 -116 20 -20 33 -20 749 -20 l730 0
20 26 c36 46 22 93 -33 114 -18 6 -264 10 -719 10 -558 -1 -698 -3 -723 -14z"/>
<path d="M3520 1328 c-25 -27 -26 -69 -1 -99 14 -18 31 -23 78 -27 104 -7 166
31 147 92 -14 48 -32 56 -120 56 -73 0 -86 -3 -104 -22z"/>
</g>
</svg>
