<?xml version="1.0" standalone="no"?>
<!DOCTYPE svg PUBLIC "-//W3C//DTD SVG 20010904//EN"
 "http://www.w3.org/TR/2001/REC-SVG-20010904/DTD/svg10.dtd">
<svg version="1.0" xmlns="http://www.w3.org/2000/svg"
 width="512.000000pt" height="512.000000pt" viewBox="0 0 512.000000 512.000000"
 preserveAspectRatio="xMidYMid meet">

<g transform="translate(0.000000,512.000000) scale(0.100000,-0.100000)"
fill="#000000" stroke="none">
<path d="M167 4188 c-20 -6 -59 -30 -86 -54 -88 -79 -81 51 -81 -1574 0 -1287
2 -1441 16 -1483 21 -61 96 -130 158 -146 33 -8 683 -11 2389 -11 2618 0 2407
-6 2484 72 79 80 73 -39 73 1567 0 1288 -2 1442 -16 1484 -21 61 -96 130 -158
146 -62 15 -776 15 -810 0 -51 -23 -55 -103 -7 -128 13 -7 151 -11 401 -11
l382 0 29 -29 29 -29 0 -1431 0 -1430 -24 -28 -24 -28 -2357 -3 -2356 -2 -30
29 -29 29 0 1432 0 1432 29 29 29 29 1807 0 c1254 0 1812 3 1826 11 48 25 44
105 -7 128 -33 15 -3610 14 -3667 -1z"/>
<path d="M525 3628 c-46 -25 -45 3 -45 -859 0 -587 3 -825 11 -843 7 -13 23
-30 38 -36 18 -7 249 -10 762 -8 709 3 738 4 758 22 l21 19 0 838 0 838 -26
20 c-26 21 -33 21 -763 21 -513 -1 -742 -4 -756 -12z m1395 -868 l0 -731 -82
3 -83 3 -5 160 c-5 172 -11 193 -66 249 -66 65 -73 66 -404 66 -324 0 -335 -1
-398 -55 -65 -55 -76 -92 -80 -268 l-4 -157 -84 0 -84 0 0 730 0 730 645 0
645 0 0 -730z m-341 -426 c19 -24 21 -40 21 -165 l0 -139 -322 2 -323 3 -3
120 c-3 135 0 157 28 185 19 19 35 20 299 20 l280 0 20 -26z"/>
<path d="M1207 3310 c-205 -35 -357 -250 -319 -452 24 -127 100 -231 216 -291
58 -30 67 -32 171 -32 105 0 114 2 177 33 78 38 144 106 185 190 25 51 28 67
28 162 0 93 -3 112 -27 162 -54 115 -169 204 -292 227 -66 12 -70 12 -139 1z
m168 -164 c84 -36 145 -129 145 -224 0 -138 -103 -242 -240 -242 -142 0 -244
100 -244 240 0 178 175 294 339 226z"/>
<path d="M2436 3619 c-20 -16 -26 -29 -26 -59 0 -74 -42 -70 756 -70 l713 0
20 26 c12 15 21 33 21 40 0 26 -23 62 -47 73 -17 8 -230 11 -717 11 -686 0
-694 0 -720 -21z"/>
<path d="M2460 3233 c-33 -13 -50 -37 -50 -73 0 -71 -7 -70 392 -70 343 0 356
1 373 20 25 28 23 76 -4 103 -21 22 -26 22 -359 24 -185 1 -344 -1 -352 -4z"/>
<path d="M3420 3233 c-51 -19 -68 -85 -30 -123 20 -20 33 -20 614 -20 l595 0
20 26 c12 15 21 33 21 40 0 26 -23 62 -47 73 -25 11 -1142 15 -1173 4z"/>
<path d="M2460 2833 c-33 -12 -50 -37 -50 -73 0 -75 -71 -70 953 -70 l916 0
20 26 c27 35 26 57 -3 91 l-24 28 -899 2 c-494 1 -905 -1 -913 -4z"/>
<path d="M2427 2412 c-24 -27 -22 -85 4 -108 20 -18 44 -19 531 -19 l510 0 24
28 c29 34 30 56 3 91 l-20 26 -518 0 c-489 0 -519 -1 -534 -18z"/>
<path d="M3710 2410 c-25 -25 -26 -71 -1 -101 l19 -24 272 0 272 0 24 28 c29
34 30 56 3 91 l-20 26 -275 0 c-261 0 -275 -1 -294 -20z"/>
<path d="M2427 2012 c-24 -27 -22 -85 4 -108 20 -18 40 -19 330 -19 304 0 309
0 330 22 27 27 29 75 4 103 -17 19 -30 20 -335 20 -294 0 -318 -1 -333 -18z"/>
<path d="M3310 2010 c-27 -27 -26 -81 1 -106 20 -18 45 -19 477 -22 315 -2
465 1 483 8 25 11 49 46 49 74 0 7 -9 25 -21 40 l-20 26 -475 0 c-461 0 -475
-1 -494 -20z"/>
<path d="M501 1604 c-26 -34 -27 -68 -1 -94 29 -29 48 -31 279 -28 210 3 213
3 232 27 25 30 24 76 -1 101 -19 19 -33 20 -254 20 l-235 0 -20 -26z"/>
<path d="M1221 1604 c-12 -15 -21 -33 -21 -40 0 -26 23 -62 47 -73 16 -7 145
-11 397 -11 363 0 374 1 400 21 33 26 36 79 6 109 -19 19 -33 20 -414 20
l-395 0 -20 -26z"/>
</g>
</svg>
